<mxfile host="app.diagrams.net" modified="2021-11-23T12:11:16.706Z" agent="5.0 (Windows NT 10.0; Win64; x64) AppleWebKit/537.36 (KHTML, like Gecko) Chrome/96.0.4664.45 Safari/537.36" etag="cZ1kjO2NJRvgwx1gCV21" version="15.8.3" type="github">
  <diagram id="5t4wGBa66jrqZ2ULJCFr" name="Page-1">
    <mxGraphModel dx="1422" dy="762" grid="1" gridSize="10" guides="1" tooltips="1" connect="1" arrows="1" fold="1" page="1" pageScale="1" pageWidth="1200" pageHeight="1600" background="none" math="0" shadow="0">
      <root>
        <mxCell id="0" />
        <mxCell id="1" parent="0" />
        <mxCell id="kLMKeRcshYw_PilVYGeS-11" value="" style="rounded=1;whiteSpace=wrap;html=1;strokeColor=#67AB9F;strokeWidth=2;" vertex="1" parent="1">
          <mxGeometry x="201.5" y="280" width="717" height="120" as="geometry" />
        </mxCell>
        <mxCell id="kLMKeRcshYw_PilVYGeS-12" value="Sports" style="rounded=0;whiteSpace=wrap;html=1;fillColor=#dae8fc;strokeColor=#6c8ebf;" vertex="1" parent="1">
          <mxGeometry x="232" y="310" width="99" height="60" as="geometry" />
        </mxCell>
        <mxCell id="kLMKeRcshYw_PilVYGeS-13" value="3D" style="rounded=0;whiteSpace=wrap;html=1;fillColor=#dae8fc;strokeColor=#6c8ebf;" vertex="1" parent="1">
          <mxGeometry x="350" y="310" width="120" height="60" as="geometry" />
        </mxCell>
        <mxCell id="kLMKeRcshYw_PilVYGeS-14" value="90选5" style="rounded=0;whiteSpace=wrap;html=1;fillColor=#dae8fc;strokeColor=#6c8ebf;" vertex="1" parent="1">
          <mxGeometry x="491" y="310" width="120" height="60" as="geometry" />
        </mxCell>
        <mxCell id="kLMKeRcshYw_PilVYGeS-15" value="Football14" style="rounded=0;whiteSpace=wrap;html=1;fillColor=#dae8fc;strokeColor=#6c8ebf;" vertex="1" parent="1">
          <mxGeometry x="632" y="310" width="120" height="60" as="geometry" />
        </mxCell>
        <mxCell id="kLMKeRcshYw_PilVYGeS-16" value="&lt;b&gt;....&lt;/b&gt;" style="rounded=0;whiteSpace=wrap;html=1;fillColor=#dae8fc;strokeColor=#6c8ebf;" vertex="1" parent="1">
          <mxGeometry x="773" y="310" width="115" height="60" as="geometry" />
        </mxCell>
        <mxCell id="kLMKeRcshYw_PilVYGeS-17" value="" style="rounded=1;whiteSpace=wrap;html=1;strokeColor=#67AB9F;strokeWidth=2;gradientColor=none;" vertex="1" parent="1">
          <mxGeometry x="201.5" y="120" width="718.5" height="118" as="geometry" />
        </mxCell>
        <mxCell id="kLMKeRcshYw_PilVYGeS-18" value="主应用" style="rounded=0;whiteSpace=wrap;html=1;fillColor=#fff2cc;strokeColor=#d6b656;" vertex="1" parent="1">
          <mxGeometry x="297.5" y="150" width="542" height="66" as="geometry" />
        </mxCell>
        <mxCell id="kLMKeRcshYw_PilVYGeS-19" value="主应用" style="text;html=1;strokeColor=#67AB9F;fillColor=none;align=center;verticalAlign=middle;whiteSpace=wrap;rounded=1;strokeWidth=2;fontStyle=1;fontColor=#67AB9F;" vertex="1" parent="1">
          <mxGeometry x="120" y="120" width="63" height="120" as="geometry" />
        </mxCell>
        <mxCell id="kLMKeRcshYw_PilVYGeS-20" value="子应用" style="text;html=1;strokeColor=#67AB9F;fillColor=none;align=center;verticalAlign=middle;whiteSpace=wrap;rounded=1;strokeWidth=2;fontStyle=1;fontColor=#67AB9F;" vertex="1" parent="1">
          <mxGeometry x="120" y="280" width="60" height="120" as="geometry" />
        </mxCell>
        <mxCell id="kLMKeRcshYw_PilVYGeS-21" value="设备" style="text;html=1;strokeColor=#82B366;fillColor=none;align=center;verticalAlign=middle;whiteSpace=wrap;rounded=1;strokeWidth=2;fontStyle=1;fontColor=#82B366;" vertex="1" parent="1">
          <mxGeometry x="120" y="12.5" width="63" height="70" as="geometry" />
        </mxCell>
        <mxCell id="kLMKeRcshYw_PilVYGeS-22" value="" style="text;html=1;strokeColor=#82B366;fillColor=none;align=center;verticalAlign=middle;whiteSpace=wrap;rounded=1;strokeWidth=2;fontStyle=1;fontColor=#82B366;" vertex="1" parent="1">
          <mxGeometry x="201.5" y="12.5" width="718.5" height="70" as="geometry" />
        </mxCell>
        <mxCell id="kLMKeRcshYw_PilVYGeS-23" value="WEB" style="rounded=0;whiteSpace=wrap;html=1;fillColor=#d5e8d4;strokeColor=#82B366;" vertex="1" parent="1">
          <mxGeometry x="250" y="25" width="119" height="45" as="geometry" />
        </mxCell>
        <mxCell id="kLMKeRcshYw_PilVYGeS-24" value="H5" style="rounded=0;whiteSpace=wrap;html=1;fillColor=#d5e8d4;strokeColor=#82B366;" vertex="1" parent="1">
          <mxGeometry x="400" y="25" width="119" height="45" as="geometry" />
        </mxCell>
        <mxCell id="kLMKeRcshYw_PilVYGeS-25" value="APP" style="rounded=0;whiteSpace=wrap;html=1;fillColor=#d5e8d4;strokeColor=#82B366;" vertex="1" parent="1">
          <mxGeometry x="550" y="25" width="119" height="45" as="geometry" />
        </mxCell>
        <mxCell id="kLMKeRcshYw_PilVYGeS-26" value="&lt;b&gt;...&lt;/b&gt;" style="rounded=0;whiteSpace=wrap;html=1;fillColor=#d5e8d4;strokeColor=#82B366;" vertex="1" parent="1">
          <mxGeometry x="700" y="25" width="119" height="45" as="geometry" />
        </mxCell>
      </root>
    </mxGraphModel>
  </diagram>
</mxfile>
